# xmcd CD database file
#
# Track frame offsets:
#	150
#	18000
#	34962
#	55460
#	78622
#	101625
#	120112
#	143302
#	162057
#	176430
#	193827
#	216620
#
# Disc length: 3094 seconds
#
# Revision: 3
# Processed by: cddbd v1.5PL3 Copyright (c) Steve Scherf et al.
# Submitted via: CDex 1.51
#
DISCID=9b0c140c
DTITLE=Carol Fran and Clarence Holliman - See There !
DYEAR=1994
DGENRE=Blues
TTITLE0=Daddy, Daddy, Daddy
TTITLE1=I Miss You So
TTITLE2=Keep Your Hand On Your Heart
TTITLE3=Are You Serious?
TTITLE4=I'll Never Be Free
TTITLE5=See There!  (Sure is Tough)
TTITLE6=Blabs
TTITLE7=Mean and Evil
TTITLE8=Lookin' Good
TTITLE9=You Got Me Dizzy
TTITLE10=I Don't Want To Do Wrong
TTITLE11=Door Poppin'
EXTD=YEAR: 1994
EXTT0=
EXTT1=
EXTT2=
EXTT3=
EXTT4=
EXTT5=
EXTT6=
EXTT7=
EXTT8=
EXTT9=
EXTT10=
EXTT11=
PLAYORDER=
